<svg xmlns="http://www.w3.org/2000/svg" width="32" height="32"><circle cx="16" cy="16" r="16" fill="#fff"/><circle cx="16" cy="16" r="14" fill="#36c"/><path d="M6.11 19h.5v-3.378c0-.397.159-.778.44-1.06l3.122-3.121a1.5 1.5 0 011.06-.441h1.377V9.5a1.5 1.5 0 011.5-1.5h10a1.5 1.5 0 011.5 1.5v10a1.5 1.5 0 01-1.5 1.5h-.5a3 3 0 01-6 0h-4a3 3 0 01-6 0h-1.5a.501.501 0 01-.5-.5v-1c0-.275.225-.5.5-.5zm14.5 3.5a1.5 1.5 0 10-.002-3 1.5 1.5 0 00.001 3zm-10 0a1.5 1.5 0 10-.002-3 1.5 1.5 0 00.001 3zM8.11 16h4.5v-3.5h-1.38l-3.12 3.122z" fill="#fff"/><circle cx="22.248" cy="7.292" r="4.363" fill="#eef8ff"/><path d="M22.248 2.929a4.39 4.39 0 00-.73.06 4.364 4.364 0 010 8.605 4.363 4.363 0 10.73-8.665z" fill="#e1effb"/><path d="M22.248 1.621a5.636 5.636 0 00-5.636 5.636c0 4.026 4.13 8.836 5.319 10.138.17.186.463.186.633 0 1.19-1.302 5.32-6.112 5.32-10.138a5.636 5.636 0 00-5.636-5.636zm0 9.995a4.324 4.324 0 110-8.648 4.324 4.324 0 010 8.648z" fill="#ff4c4c"/><path d="M22.248 1.621c-.241 0-.479.015-.712.045a5.642 5.642 0 014.64 3.815c.253.551.396 1.164.396 1.81a4.31 4.31 0 01-.323 1.642c-.767 3.214-3.424 6.547-4.713 8.02.153.174.286.323.395.442.17.186.463.186.633 0 1.19-1.302 5.32-6.112 5.32-10.138a5.636 5.636 0 00-5.636-5.636z" fill="#f33a3a"/><path d="M20.62 4.621c0-.173.157-.33.404-.33h1.66c1.05 0 1.876.503 1.876 1.858v.05c0 1.355-.851 1.875-1.941 1.875h-.926v1.917c0 .223-.272.338-.536.338-.273 0-.537-.115-.537-.338zm1.073.611v2h.926c.537 0 .867-.306.867-.95v-.1c0-.644-.33-.95-.867-.95h-.926z" fill="#2c5871"/></svg>