<svg xmlns="http://www.w3.org/2000/svg" width="512" height="512" viewBox="0 0 64.603 64.603"><path d="M14.448 30.485c-5.421 5.421-5.421 14.242.002 19.666 5.419 5.418 14.242 5.415 19.663-.005.071-.068.129-.147.196-.226l.925.929c-.065.073-.123.15-.196.229-5.933 5.933-15.586 5.933-21.519 0-5.936-5.936-5.936-15.589 0-21.522.072-.073.152-.129.225-.196l.927.928c-.072.071-.148.124-.223.197zm23.695 23.693c-7.641 7.64-20.082 7.64-27.722 0-7.641-7.642-7.643-20.08 0-27.72.071-.071.147-.131.22-.201l-.928-.927c-.071.069-.147.133-.22.201-8.154 8.154-8.151 21.422 0 29.576 8.155 8.154 21.421 8.154 29.575 0l.205-.217-.926-.929c-.073.068-.136.146-.204.217zM19.246 34.859l-.932-.929c-.073.066-.15.123-.225.196-3.417 3.417-3.41 8.974.002 12.389 3.415 3.412 8.972 3.417 12.39 0 .07-.068.125-.146.194-.224l-.929-.931c-.067.075-.125.152-.196.229-2.9 2.901-7.625 2.901-10.529 0-2.904-2.906-2.904-7.631 0-10.53.065-.077.143-.136.225-.2zm22.925-1.355l-3.34 3.335-1.414-1.414 7.947-7.953c.629-.626.511-1.761-.265-2.537l-5.434-5.431c-.775-.776-1.905-.892-2.537-.266l-7.947 7.951-1.42-1.42 3.335-3.336L8.664 0 .002 8.661l22.434 22.436 3.336-3.337 1.42 1.422-2.411 2.414c-.631.627-.513 1.763.265 2.537l1.866 1.863-3.265 3.262-1.46-1.46c-.076.064-.159.114-.236.192a3.303 3.303 0 0 0 0 4.667 3.305 3.305 0 0 0 4.667 0c.075-.073.124-.155.189-.237l-1.459-1.458 3.265-3.264 1.861 1.865c.778.775 1.914.893 2.542.265l2.412-2.413 1.414 1.417-3.336 3.337 22.436 22.435 8.659-8.661-22.43-22.439z" fill="#FFF"/></svg>