<svg xmlns="http://www.w3.org/2000/svg" width="32" height="32"><circle cx="16" cy="16" r="16" fill="#fff"/><circle cx="16" cy="16" r="14" fill="#36c"/><path d="M6.11 19h.5v-3.378c0-.397.159-.778.44-1.06l3.122-3.121a1.5 1.5 0 011.06-.441h1.377V9.5a1.5 1.5 0 011.5-1.5h10a1.5 1.5 0 011.5 1.5v10a1.5 1.5 0 01-1.5 1.5h-.5a3 3 0 01-6 0h-4a3 3 0 01-6 0h-1.5a.501.501 0 01-.5-.5v-1c0-.275.225-.5.5-.5zm14.5 3.5a1.5 1.5 0 10-.002-3 1.5 1.5 0 00.001 3zm-10 0a1.5 1.5 0 10-.002-3 1.5 1.5 0 00.001 3zM8.11 16h4.5v-3.5h-1.38l-3.12 3.122z" fill="#fff"/></svg>