<?xml version="1.0" encoding="UTF-8" standalone="no"?>
<svg
   xmlns:dc="http://purl.org/dc/elements/1.1/"
   xmlns:cc="http://creativecommons.org/ns#"
   xmlns:rdf="http://www.w3.org/1999/02/22-rdf-syntax-ns#"
   xmlns:svg="http://www.w3.org/2000/svg"
   xmlns="http://www.w3.org/2000/svg"
   xmlns:sodipodi="http://sodipodi.sourceforge.net/DTD/sodipodi-0.dtd"
   xmlns:inkscape="http://www.inkscape.org/namespaces/inkscape"
   viewBox="0 0 32 32"
   version="1.1"
   id="svg3784"
   sodipodi:docname="icon2.svg"
   width="32"
   height="32"
   inkscape:version="0.92.3 (2405546, 2018-03-11)">
  <metadata
     id="metadata3790">
    <rdf:RDF>
      <cc:Work
         rdf:about="">
        <dc:format>image/svg+xml</dc:format>
        <dc:type
           rdf:resource="http://purl.org/dc/dcmitype/StillImage" />
        <dc:title></dc:title>
      </cc:Work>
    </rdf:RDF>
  </metadata>
  <defs
     id="defs3788" />
  <sodipodi:namedview
     pagecolor="#ffffff"
     bordercolor="#666666"
     borderopacity="1"
     objecttolerance="10"
     gridtolerance="10"
     guidetolerance="10"
     inkscape:pageopacity="0"
     inkscape:pageshadow="2"
     inkscape:window-width="1920"
     inkscape:window-height="1017"
     id="namedview3786"
     showgrid="false"
     inkscape:zoom="9.3952564"
     inkscape:cx="33.159123"
     inkscape:cy="0"
     inkscape:window-x="-8"
     inkscape:window-y="-8"
     inkscape:window-maximized="1"
     inkscape:current-layer="svg3784" />
  <g
     transform="matrix(0.05514701,0,0,0.05514701,-192.2247,256.3776)"
     id="g12" />
  <g
     transform="matrix(0.05514701,0,0,0.05514701,-192.2247,256.3776)"
     id="g14" />
  <g
     transform="matrix(0.05514701,0,0,0.05514701,-192.2247,256.3776)"
     id="g16" />
  <g
     transform="matrix(0.05514701,0,0,0.05514701,-192.2247,256.3776)"
     id="g18" />
  <g
     transform="matrix(0.05514701,0,0,0.05514701,-192.2247,256.3776)"
     id="g20" />
  <g
     transform="matrix(0.05514701,0,0,0.05514701,-192.2247,256.3776)"
     id="g22" />
  <g
     transform="matrix(0.05514701,0,0,0.05514701,-192.2247,256.3776)"
     id="g24" />
  <g
     transform="matrix(0.05514701,0,0,0.05514701,-192.2247,256.3776)"
     id="g26" />
  <g
     transform="matrix(0.05514701,0,0,0.05514701,-192.2247,256.3776)"
     id="g28" />
  <g
     transform="matrix(0.05514701,0,0,0.05514701,-192.2247,256.3776)"
     id="g30" />
  <g
     transform="matrix(0.05514701,0,0,0.05514701,-192.2247,256.3776)"
     id="g32" />
  <g
     transform="matrix(0.05514701,0,0,0.05514701,-192.2247,256.3776)"
     id="g34" />
  <g
     transform="matrix(0.05514701,0,0,0.05514701,-192.2247,256.3776)"
     id="g36" />
  <g
     transform="matrix(0.05514701,0,0,0.05514701,-192.2247,256.3776)"
     id="g38" />
  <g
     transform="matrix(0.05514701,0,0,0.05514701,-192.2247,256.3776)"
     id="g40" />
  <circle
     style="fill:#ffffff;stroke-width:1.23447227"
     id="path3792-1"
     cx="16"
     cy="16"
     r="16" />
  <circle
     style="fill:#3366cc;stroke-width:1.08016324"
     id="path3792"
     cx="16"
     cy="16"
     r="14" />
  <path
     d="m 6.1092133,19 h 0.4999999 v -3.378125 c 0,-0.396874 0.1593748,-0.778125 0.4406243,-1.059374 L 10.17171,11.440626 c 0.28125,-0.281249 0.6625,-0.440624 1.059376,-0.440624 h 1.37813 V 9.5000015 c 0,-0.8281249 0.671874,-1.5000001 1.499999,-1.5000001 h 10.000002 c 0.828125,0 1.499999,0.6718752 1.499999,1.5000001 V 19.5 c 0,0.828124 -0.671874,1.5 -1.499999,1.5 h -0.5 c 0,1.656249 -1.34375,2.999999 -3.000003,2.999999 -1.65625,0 -2.999999,-1.34375 -2.999999,-2.999999 h -4 c 0,1.656249 -1.34375,2.999999 -3.000005,2.999999 -1.6562477,0 -2.999997,-1.34375 -2.999997,-2.999999 H 6.1092133 C 5.8342134,21 5.6092134,20.775 5.6092134,20.5 v -1 c 0,-0.275 0.225,-0.5 0.4999999,-0.5 z m 14.5000007,3.499999 c 0.828127,0 1.500003,-0.671874 1.500003,-1.499999 0,-0.828125 -0.671876,-1.5 -1.500003,-1.5 -0.828125,0 -1.5,0.671875 -1.5,1.5 0,0.828125 0.671875,1.499999 1.5,1.499999 z m -10.000004,0 c 0.828127,0 1.500005,-0.671874 1.500005,-1.499999 0,-0.828125 -0.671878,-1.5 -1.500005,-1.5 -0.8281238,0 -1.4999973,0.671875 -1.4999973,1.5 0,0.828125 0.6718735,1.499999 1.4999973,1.499999 z M 8.1092129,16.000001 h 4.5000031 v -3.5 h -1.37813 l -3.1218731,3.121874 z"
     id="path3782"
     inkscape:connector-curvature="0"
     style="fill:#ffffff;stroke-width:0.03124999" />
  <circle
     style="fill:#eef8ff;stroke-width:0.03108138"
     cx="22.247684"
     cy="7.2919221"
     r="4.3628936"
     id="circle2" />
  <path
     inkscape:connector-curvature="0"
     style="fill:#e1effb;stroke-width:0.03108138"
     d="m 22.247681,2.9289646 c -0.248461,0 -0.491952,0.021079 -0.729074,0.060983 2.062434,0.34702 3.633816,2.1408197 3.633816,4.3019077 0,2.161093 -1.571382,3.9548927 -3.633816,4.3019127 0.237122,0.0399 0.480613,0.06098 0.729074,0.06098 2.409555,0 4.362896,-1.9533407 4.362896,-4.3628957 0,-2.40955 -1.953341,-4.3628903 -4.362896,-4.3628903 z"
     id="path4" />
  <path
     inkscape:connector-curvature="0"
     style="fill:#ff4c4c;stroke-width:0.03108138"
     d="m 22.247681,1.6211199 c -3.112737,0 -5.636079,2.5233754 -5.636079,5.6360844 0,4.0259357 4.130154,8.8362477 5.319297,10.1378147 0.170266,0.186329 0.463332,0.186329 0.633598,0 1.189172,-1.301567 5.319297,-6.111879 5.319297,-10.1378147 -3.4e-5,-3.112709 -2.523376,-5.6360844 -5.636113,-5.6360844 z m 0,9.9945611 c -2.38798,0 -4.323821,-1.9358407 -4.323821,-4.3238257 0,-2.38798 1.935841,-4.3238213 4.323821,-4.3238213 2.387986,0 4.323827,1.9358413 4.323827,4.3238213 0,2.387985 -1.935841,4.3238257 -4.323827,4.3238257 z"
     id="path6" />
  <path
     inkscape:connector-curvature="0"
     style="fill:#f33a3a;stroke-width:0.03108138"
     d="m 22.247681,1.6211199 c -0.241005,0 -0.478437,0.015217 -0.71145,0.044525 2.176846,0.2742017 3.96682,1.7900071 4.638834,3.8157044 0.25434,0.550765 0.396443,1.164 0.396443,1.810489 0,0.580912 -0.114847,1.134878 -0.322593,1.640915 -0.766938,3.2137807 -3.424239,6.5468887 -4.712718,8.0203337 0.152457,0.17433 0.285948,0.322931 0.394674,0.441915 0.17026,0.186329 0.463332,0.186329 0.633593,0 1.189176,-1.301567 5.319296,-6.111878 5.319296,-10.1378147 0,-3.112708 -2.523342,-5.6360844 -5.636079,-5.6360844 z"
     id="path8" />
  <path
     inkscape:connector-curvature="0"
     style="fill:#2c5871;stroke-width:0.03108138"
     d="m 20.619548,4.6210053 c 0,-0.173468 0.15696,-0.330428 0.404774,-0.330428 h 1.660393 c 1.049126,0 1.875203,0.50389 1.875203,1.858666 v 0.0496 c 0,1.354777 -0.850882,1.875169 -1.94128,1.875169 h -0.925199 v 1.916509 c 0,0.2230427 -0.272613,0.3386947 -0.536929,0.3386947 -0.272646,0 -0.536962,-0.115652 -0.536962,-0.3386947 z m 1.073891,0.611308 v 1.999089 h 0.925199 c 0.536934,0 0.867389,-0.305623 0.867389,-0.94997 v -0.09912 c 0,-0.644352 -0.330455,-0.949975 -0.867389,-0.949975 h -0.925199 z"
     id="path10" />
</svg>
