<?xml version="1.0" encoding="iso-8859-1"?>
<!-- Generator: Adobe Illustrator 19.0.0, SVG Export Plug-In . SVG Version: 6.00 Build 0)  -->
<svg version="1.1" id="Capa_1" xmlns="http://www.w3.org/2000/svg" xmlns:xlink="http://www.w3.org/1999/xlink" x="0px" y="0px"
	 viewBox="0 0 511.999 511.999" style="enable-background:new 0 0 511.999 511.999;" xml:space="preserve">
<circle style="fill:#EEF8FF;" cx="255.999" cy="182.45" r="140.37"/>
<path style="fill:#E1EFFB;" d="M255.999,42.078c-7.994,0-15.828,0.678-23.457,1.962c66.356,11.165,116.913,68.878,116.913,138.408
	s-50.557,127.243-116.913,138.408c7.629,1.284,15.463,1.962,23.457,1.962c77.524,0,140.37-62.846,140.37-140.37
	S333.523,42.078,255.999,42.078z"/>
<path style="fill:#FF4C4C;" d="M255.999,0C155.851,0,74.666,81.186,74.666,181.333c0,129.529,132.882,284.294,171.141,326.17
	c5.478,5.995,14.907,5.995,20.385,0c38.26-41.876,171.141-196.641,171.141-326.17C437.332,81.186,356.147,0,255.999,0z
	 M255.999,321.561c-76.83,0-139.113-62.283-139.113-139.113S179.169,43.335,255.999,43.335s139.113,62.283,139.113,139.113
	S332.829,321.561,255.999,321.561z"/>
<path style="fill:#F33A3A;" d="M255.999,0c-7.754,0-15.393,0.489-22.89,1.433c70.037,8.822,127.627,57.591,149.248,122.765
	c8.183,17.72,12.755,37.45,12.755,58.25c0,18.69-3.695,36.513-10.379,52.794c-24.675,103.399-110.17,210.637-151.625,258.043
	c4.905,5.609,9.2,10.39,12.698,14.218c5.478,5.995,14.907,5.995,20.385,0c38.26-41.876,171.141-196.641,171.141-326.17
	C437.332,81.186,356.147,0,255.999,0z"/>
<path style="fill:#2C5871;" d="M203.616,96.517c0-5.581,5.05-10.631,13.023-10.631h53.421c33.754,0,60.332,16.212,60.332,59.8v1.595
	c0,43.588-27.376,60.331-62.458,60.331h-29.767v61.661c0,7.176-8.771,10.897-17.275,10.897c-8.772,0-17.276-3.721-17.276-10.897
	V96.517z M238.167,116.185v64.318h29.767c17.275,0,27.907-9.833,27.907-30.564v-3.189c0-20.731-10.632-30.564-27.907-30.564h-29.767
	V116.185z"/>
<g>
</g>
<g>
</g>
<g>
</g>
<g>
</g>
<g>
</g>
<g>
</g>
<g>
</g>
<g>
</g>
<g>
</g>
<g>
</g>
<g>
</g>
<g>
</g>
<g>
</g>
<g>
</g>
<g>
</g>
</svg>
